<svg width="1495" height="343" viewBox="0 0 1495 343" fill="none" xmlns="http://www.w3.org/2000/svg">
<g clip-path="url(#clip0_7_11)">
<rect width="1495" height="343" fill="none"/>
<rect width="1486.49" height="98.3924" transform="matrix(0.99399 0.109467 -0.0499507 0.998752 4.91479 16.9382)" fill="white"/>
<path d="M28.6269 59.2488L27.3583 84.8111L21.6617 84.1886L22.9303 58.6263L28.6269 59.2488ZM43.8294 60.9102L33.2348 72.6028L27.1198 78.2892L26.3528 72.8569L30.4532 67.7624L36.8397 60.1463L43.8294 60.9102ZM35.9556 85.7506L29.5104 73.3079L34.0121 70.3931L42.7006 86.4877L35.9556 85.7506ZM62.3131 73.274L62.0936 77.6982L48.9181 76.2584L49.1377 71.8342L62.3131 73.274ZM51.4481 61.7427L50.1795 87.305L44.4829 86.6825L45.7515 61.1202L51.4481 61.7427ZM66.7554 63.4155L65.4868 88.9778L59.8077 88.3572L61.0763 62.7949L66.7554 63.4155ZM81.6291 69.9305L74.0316 89.9116L67.9506 89.2471L78.6378 64.714L82.4821 65.1341L81.6291 69.9305ZM86.0538 91.2254L80.4933 69.8063L80.0532 64.8687L83.9499 65.2945L92.1348 91.8899L86.0538 91.2254ZM86.2464 81.6792L86.0269 86.1034L72.764 84.6541L72.9836 80.2298L86.2464 81.6792ZM95.5177 66.5587L105.286 67.6261C107.231 67.8387 108.9 68.3153 110.292 69.0558C111.696 69.7976 112.754 70.7841 113.466 72.0151C114.178 73.2462 114.492 74.7044 114.408 76.3898C114.339 77.7943 114.052 78.9634 113.549 79.8969C113.046 80.8304 112.365 81.5738 111.506 82.1272C110.658 82.6818 109.677 83.0983 108.562 83.3765L106.66 84.1924L98.342 83.2834L98.5275 78.8378L104.713 79.5138C105.564 79.6067 106.276 79.5316 106.85 79.2884C107.425 79.0452 107.865 78.6638 108.172 78.1443C108.491 77.6143 108.669 76.9748 108.707 76.2257C108.745 75.4532 108.632 74.7701 108.369 74.1765C108.106 73.5829 107.696 73.1085 107.14 72.7536C106.595 72.3881 105.904 72.1596 105.065 72.0679L100.994 71.623L99.9457 92.7435L94.2491 92.121L95.5177 66.5587ZM108.333 93.6601L103.183 81.6766L109.195 82.3159L114.445 94.0632L114.432 94.3265L108.333 93.6601ZM124.35 69.7095L123.081 95.2718L117.385 94.6493L118.653 69.087L124.35 69.7095ZM139.552 71.3708L128.958 83.0635L122.843 88.7499L122.076 83.3176L126.176 78.223L132.563 70.607L139.552 71.3708ZM131.679 96.2113L125.233 83.7686L129.735 80.8537L138.424 96.9484L131.679 96.2113ZM147.538 72.2435L146.27 97.8058L140.59 97.1852L141.859 71.6229L147.538 72.2435ZM160.548 93.6646L167.196 74.3918L173.54 75.085L163.551 99.6944L159.41 99.2418L160.548 93.6646ZM156.38 73.2098L161.037 93.7181L161.647 99.4862L157.453 99.0279L150.054 72.5185L156.38 73.2098ZM206.426 78.6788L204.922 108.981L201.812 108.641L203.315 78.3389L206.426 78.6788ZM255.894 105.337L255.675 109.762L237.449 107.77L237.669 103.346L255.894 105.337ZM256.6 87.2332L240.123 108.062L236.069 107.619L236.224 104.494L252.837 83.7506L256.751 84.1784L256.6 87.2332ZM254.864 83.9721L254.644 88.4139L237.082 86.4948L237.303 82.053L254.864 83.9721ZM270.559 90.5768L262.962 110.558L256.881 109.893L267.568 85.3604L271.412 85.7805L270.559 90.5768ZM274.984 111.872L269.423 90.4527L268.983 85.5151L272.88 85.9409L281.065 112.536L274.984 111.872ZM275.176 102.326L274.957 106.75L261.694 105.3L261.914 100.876L275.176 102.326ZM293.65 104.98L287.255 104.281L287.475 99.8391L293.87 100.538C294.814 100.641 295.579 100.566 296.166 100.312C296.764 100.06 297.21 99.6733 297.506 99.1525C297.813 98.6212 297.984 98.0045 298.019 97.3022C298.055 96.5765 297.949 95.8883 297.7 95.2374C297.463 94.5761 297.064 94.0205 296.5 93.5706C295.949 93.1219 295.201 92.8461 294.257 92.743L289.924 92.2694L288.876 113.39L283.179 112.767L284.448 87.2051L294.478 88.3012C296.505 88.5227 298.222 89.081 299.63 89.9763C301.05 90.8728 302.112 92.0068 302.817 93.3783C303.534 94.7393 303.852 96.245 303.77 97.8953C303.688 99.5457 303.227 100.937 302.386 102.069C301.556 103.202 300.397 104.028 298.907 104.548C297.429 105.057 295.677 105.201 293.65 104.98ZM328.26 104.279L328.204 105.42C328.107 107.363 327.753 109.077 327.14 110.564C326.539 112.051 325.723 113.286 324.69 114.268C323.669 115.25 322.474 115.961 321.106 116.4C319.749 116.828 318.261 116.954 316.642 116.777C315.023 116.6 313.557 116.152 312.246 115.432C310.936 114.7 309.812 113.736 308.876 112.539C307.951 111.344 307.26 109.945 306.8 108.341C306.341 106.737 306.16 104.964 306.256 103.021L306.313 101.88C306.409 99.9372 306.764 98.2225 307.376 96.7361C307.989 95.238 308.807 93.9975 309.827 93.0147C310.86 92.0331 312.06 91.3288 313.428 90.9017C314.797 90.4628 316.291 90.3319 317.91 90.5089C319.53 90.6858 320.995 91.1401 322.305 91.8717C323.617 92.5916 324.729 93.5487 325.641 94.7428C326.566 95.9383 327.258 97.3436 327.716 98.9589C328.175 100.562 328.357 102.336 328.26 104.279ZM322.455 104.791L322.513 103.615C322.578 102.316 322.518 101.156 322.334 100.136C322.151 99.1039 321.855 98.2242 321.446 97.497C321.037 96.7698 320.515 96.2008 319.88 95.7901C319.245 95.3677 318.514 95.1113 317.687 95.0209C316.825 94.9267 316.064 95.0201 315.406 95.3012C314.749 95.5707 314.182 96.0206 313.705 96.6511C313.241 97.2828 312.867 98.0893 312.584 99.0704C312.313 100.041 312.146 101.176 312.081 102.475L312.023 103.651C311.959 104.939 312.013 106.098 312.184 107.129C312.368 108.149 312.664 109.029 313.072 109.768C313.48 110.507 313.996 111.087 314.62 111.508C315.254 111.93 316.003 112.189 316.865 112.283C317.692 112.373 318.435 112.278 319.093 111.997C319.763 111.717 320.336 111.256 320.813 110.614C321.29 109.971 321.664 109.165 321.934 108.194C322.217 107.213 322.391 106.079 322.455 104.791ZM332.362 92.4411L342.13 93.5086C344.075 93.7212 345.744 94.1977 347.136 94.9383C348.54 95.6801 349.598 96.6665 350.31 97.8975C351.022 99.1286 351.336 100.587 351.252 102.272C351.182 103.677 350.896 104.846 350.393 105.779C349.89 106.713 349.209 107.456 348.35 108.01C347.502 108.564 346.521 108.981 345.406 109.259L343.504 110.075L335.186 109.166L335.371 104.72L341.557 105.396C342.408 105.489 343.12 105.414 343.694 105.171C344.269 104.928 344.709 104.546 345.016 104.027C345.335 103.497 345.513 102.857 345.55 102.108C345.589 101.336 345.476 100.653 345.213 100.059C344.95 99.4653 344.54 98.991 343.983 98.636C343.439 98.2706 342.748 98.042 341.909 97.9504L337.838 97.5054L336.79 118.626L331.093 118.003L332.362 92.4411ZM345.177 119.543L340.027 107.559L346.039 108.198L351.289 119.946L351.276 120.209L345.177 119.543ZM361.561 95.632L360.292 121.194L354.613 120.574L355.882 95.0114L361.561 95.632ZM383.84 119.319L383.62 123.744L365.395 121.752L365.614 117.328L383.84 119.319ZM384.545 101.215L368.068 122.044L364.014 121.601L364.169 118.476L380.782 97.7326L384.697 98.1603L384.545 101.215ZM382.809 97.9541L382.589 102.396L365.027 100.477L365.248 96.0349L382.809 97.9541ZM404.491 110.667L404.271 115.092L391.096 113.652L391.315 109.228L404.491 110.667ZM393.626 99.1361L392.357 124.698L386.661 124.076L387.929 98.5136L393.626 99.1361ZM408.933 100.809L407.664 126.371L401.985 125.751L403.254 100.188L408.933 100.809ZM430.845 124.456L430.625 128.88L412.4 126.889L412.62 122.464L430.845 124.456ZM431.55 106.352L415.073 127.181L411.02 126.738L411.175 123.613L427.788 102.869L431.702 103.297L431.55 106.352ZM429.815 103.091L429.594 107.533L412.033 105.614L412.253 101.172L429.815 103.091ZM451.496 115.804L451.277 120.228L438.101 118.789L438.321 114.364L451.496 115.804ZM440.631 104.273L439.362 129.835L433.666 129.213L434.935 103.65L440.631 104.273ZM455.938 105.946L454.67 131.508L448.991 130.887L450.259 105.325L455.938 105.946ZM466.231 107.07L464.962 132.633L459.283 132.012L460.552 106.45L466.231 107.07ZM481.471 113.625L473.874 133.607L467.793 132.942L478.48 108.409L482.324 108.829L481.471 113.625ZM485.896 134.92L480.336 113.501L479.895 108.564L483.792 108.99L491.977 135.585L485.896 134.92ZM486.089 125.374L485.869 129.798L472.606 128.349L472.826 123.925L486.089 125.374ZM526.132 113.616L524.628 143.919L521.518 143.579L523.021 113.277L526.132 113.616ZM570.176 137.352C570.198 136.919 570.153 136.526 570.041 136.173C569.931 135.807 569.714 135.46 569.39 135.131C569.067 134.801 568.604 134.456 568.001 134.096C567.399 133.724 566.605 133.326 565.618 132.9C564.495 132.401 563.427 131.861 562.413 131.279C561.412 130.687 560.525 130.031 559.753 129.311C558.98 128.592 558.382 127.785 557.958 126.891C557.545 125.999 557.367 124.991 557.423 123.867C557.477 122.779 557.764 121.822 558.286 120.996C558.807 120.17 559.514 119.494 560.407 118.968C561.3 118.43 562.337 118.061 563.519 117.861C564.7 117.649 565.99 117.619 567.388 117.772C569.252 117.976 570.872 118.488 572.249 119.309C573.637 120.12 574.698 121.166 575.431 122.446C576.165 123.715 576.492 125.133 576.415 126.702L570.753 126.083C570.787 125.392 570.672 124.768 570.407 124.209C570.154 123.64 569.744 123.172 569.176 122.804C568.621 122.437 567.912 122.207 567.05 122.113C566.211 122.021 565.5 122.073 564.916 122.268C564.345 122.452 563.903 122.745 563.59 123.147C563.289 123.549 563.126 124.008 563.1 124.523C563.08 124.933 563.166 125.319 563.359 125.681C563.564 126.033 563.863 126.377 564.256 126.714C564.662 127.041 565.161 127.366 565.754 127.69C566.347 128.014 567.028 128.335 567.797 128.655C569.138 129.237 570.32 129.848 571.342 130.49C572.376 131.132 573.238 131.827 573.927 132.573C574.616 133.319 575.12 134.133 575.44 135.015C575.771 135.898 575.91 136.873 575.857 137.938C575.801 139.073 575.529 140.055 575.043 140.885C574.568 141.716 573.902 142.396 573.044 142.926C572.199 143.445 571.197 143.801 570.04 143.992C568.883 144.183 567.599 144.202 566.19 144.048C564.908 143.908 563.652 143.606 562.422 143.142C561.192 142.666 560.088 142.028 559.109 141.227C558.141 140.426 557.381 139.461 556.828 138.33C556.287 137.188 556.054 135.88 556.127 134.405L561.823 135.027C561.785 135.8 561.863 136.467 562.058 137.03C562.253 137.581 562.546 138.042 562.938 138.415C563.341 138.788 563.836 139.078 564.423 139.283C565.01 139.488 565.671 139.631 566.405 139.711C567.255 139.804 567.948 139.762 568.484 139.586C569.032 139.398 569.445 139.108 569.722 138.715C569.999 138.321 570.151 137.867 570.176 137.352ZM594.071 121.041L599.768 121.663L598.935 138.447C598.836 140.437 598.334 142.065 597.427 143.331C596.533 144.598 595.329 145.497 593.815 146.025C592.301 146.554 590.572 146.712 588.626 146.5C586.669 146.286 584.962 145.752 583.505 144.899C582.06 144.047 580.946 142.895 580.163 141.444C579.392 139.995 579.055 138.276 579.154 136.286L579.987 119.502L585.701 120.126L584.868 136.91C584.813 138.01 584.932 138.929 585.223 139.667C585.527 140.395 585.985 140.957 586.598 141.353C587.211 141.738 587.96 141.979 588.846 142.076C589.731 142.172 590.49 142.096 591.123 141.848C591.769 141.589 592.266 141.131 592.615 140.475C592.976 139.809 593.184 138.925 593.238 137.825L594.071 121.041ZM606.565 122.406L611.283 122.922L616.492 141.867L623.497 124.257L628.215 124.772L618.035 149.361L614.208 148.942L606.565 122.406ZM603.839 122.108L608.645 122.633L608.596 141.674L608.267 148.293L602.571 147.671L603.839 122.108ZM626.136 124.545L630.959 125.072L629.69 150.634L623.976 150.01L624.305 143.391L626.136 124.545ZM638.77 125.926L643.185 137.846L648.765 127.018L654.916 127.69L645.84 143.114L645.382 152.349L639.598 151.717L640.056 142.482L632.584 125.25L638.77 125.926ZM687.802 131.284L686.298 161.586L683.188 161.247L684.692 130.944L687.802 131.284ZM728.001 155.676L734.65 136.403L740.993 137.097L731.005 161.706L726.864 161.253L728.001 155.676ZM723.834 135.221L728.491 155.73L729.1 161.498L724.907 161.04L717.508 134.53L723.834 135.221ZM749.171 137.99L747.903 163.553L742.223 162.932L743.492 137.37L749.171 137.99ZM774.753 140.786L773.485 166.348L767.806 165.728L759.015 148.157L758.195 164.677L752.498 164.055L753.767 138.493L759.463 139.115L768.272 156.688L769.092 140.167L774.753 140.786ZM799.951 143.54L798.682 169.102L793.003 168.481L784.212 150.91L783.392 167.431L777.696 166.808L778.965 141.246L784.661 141.869L793.469 159.442L794.289 142.921L799.951 143.54ZM807.744 144.391L812.16 156.312L817.74 145.483L823.89 146.156L814.815 161.58L814.357 170.815L808.573 170.183L809.031 160.948L801.559 143.715L807.744 144.391ZM838.167 147.716L836.898 173.278L831.219 172.657L832.488 147.095L838.167 147.716ZM845.908 148.562L845.687 153.004L824.683 150.708L824.904 146.266L845.908 148.562ZM860.7 169.101C860.722 168.668 860.677 168.275 860.566 167.921C860.455 167.556 860.238 167.209 859.915 166.879C859.591 166.55 859.128 166.205 858.525 165.845C857.923 165.473 857.129 165.074 856.143 164.649C855.02 164.15 853.951 163.609 852.938 163.028C851.936 162.436 851.049 161.78 850.277 161.06C849.505 160.34 848.906 159.533 848.482 158.64C848.07 157.747 847.891 156.739 847.947 155.616C848.001 154.527 848.289 153.57 848.81 152.745C849.331 151.919 850.038 151.243 850.931 150.717C851.824 150.179 852.862 149.81 854.043 149.61C855.225 149.397 856.514 149.368 857.912 149.521C859.776 149.724 861.396 150.237 862.773 151.058C864.162 151.869 865.222 152.914 865.955 154.195C866.689 155.463 867.017 156.882 866.939 158.45L861.277 157.832C861.312 157.141 861.196 156.516 860.931 155.958C860.678 155.389 860.268 154.921 859.701 154.553C859.145 154.186 858.436 153.955 857.574 153.861C856.735 153.77 856.024 153.821 855.44 154.016C854.869 154.201 854.427 154.494 854.114 154.895C853.813 155.298 853.65 155.757 853.624 156.272C853.604 156.681 853.69 157.067 853.883 157.43C854.088 157.781 854.387 158.126 854.781 158.463C855.186 158.79 855.685 159.115 856.278 159.439C856.871 159.762 857.552 160.084 858.321 160.403C859.663 160.985 860.844 161.597 861.867 162.238C862.901 162.881 863.762 163.575 864.451 164.321C865.141 165.067 865.645 165.881 865.964 166.764C866.295 167.647 866.434 168.621 866.381 169.686C866.325 170.822 866.054 171.804 865.567 172.634C865.093 173.464 864.427 174.145 863.569 174.675C862.723 175.194 861.721 175.55 860.564 175.741C859.407 175.932 858.123 175.951 856.714 175.797C855.432 175.657 854.177 175.355 852.946 174.891C851.717 174.415 850.612 173.777 849.633 172.975C848.665 172.175 847.905 171.209 847.352 170.078C846.812 168.936 846.578 167.628 846.651 166.153L852.348 166.776C852.309 167.548 852.387 168.216 852.582 168.779C852.777 169.33 853.071 169.791 853.462 170.163C853.865 170.537 854.36 170.826 854.947 171.032C855.535 171.237 856.195 171.38 856.929 171.46C857.779 171.553 858.473 171.511 859.008 171.334C859.556 171.147 859.969 170.857 860.246 170.463C860.523 170.07 860.675 169.616 860.7 169.101ZM876.732 151.93L875.463 177.493L869.784 176.872L871.053 151.31L876.732 151.93ZM891.973 158.485L884.375 178.466L878.294 177.802L888.981 153.269L892.826 153.689L891.973 158.485ZM896.397 179.78L890.837 158.361L890.397 153.424L894.294 153.849L902.478 180.445L896.397 179.78ZM896.59 170.234L896.371 174.658L883.108 173.209L883.327 168.785L896.59 170.234ZM936.633 158.476L935.129 188.779L932.019 188.439L933.523 158.136L936.633 158.476ZM974.115 162.572L972.847 188.135L967.15 187.512L968.419 161.95L974.115 162.572ZM989.318 164.234L978.723 175.926L972.608 181.613L971.841 176.18L975.941 171.086L982.328 163.47L989.318 164.234ZM981.444 189.074L974.999 176.631L979.5 173.717L988.189 189.811L981.444 189.074ZM1007.8 176.597L1007.58 181.022L994.406 179.582L994.626 175.158L1007.8 176.597ZM996.936 165.066L995.668 190.629L989.971 190.006L991.24 164.444L996.936 165.066ZM1012.24 166.739L1010.98 192.301L1005.3 191.681L1006.56 166.118L1012.24 166.739ZM1019.2 167.499L1023.92 168.015L1029.13 186.959L1036.13 169.349L1040.85 169.865L1030.67 194.453L1026.84 194.035L1019.2 167.499ZM1016.47 167.201L1021.28 167.726L1021.23 186.767L1020.9 193.386L1015.2 192.763L1016.47 167.201ZM1038.77 169.638L1043.59 170.165L1042.32 195.727L1036.61 195.103L1036.94 188.484L1038.77 169.638ZM1064.07 193.655L1063.85 198.08L1050.31 196.6L1050.53 192.176L1064.07 193.655ZM1053.52 171.249L1052.25 196.812L1046.55 196.189L1047.82 170.627L1053.52 171.249ZM1062.86 182.615L1062.65 186.898L1050.85 185.609L1051.07 181.326L1062.86 182.615ZM1065.14 172.519L1064.92 176.961L1051.36 175.479L1051.58 171.037L1065.14 172.519ZM1083.47 195.775L1083.25 200.199L1070.4 198.796L1070.62 194.372L1083.47 195.775ZM1073.61 173.445L1072.34 199.008L1066.65 198.385L1067.92 172.823L1073.61 173.445ZM1108.3 177.236L1107.03 202.798L1101.35 202.178L1092.56 184.607L1091.74 201.127L1086.04 200.505L1087.31 174.943L1093.01 175.565L1101.82 193.138L1102.64 176.617L1108.3 177.236ZM1116.09 178.088L1120.51 190.009L1126.09 179.18L1132.24 179.852L1123.16 195.276L1122.7 204.511L1116.92 203.879L1117.38 194.644L1109.91 177.412L1116.09 178.088ZM1146.51 181.412L1145.25 206.975L1139.57 206.354L1140.84 180.792L1146.51 181.412ZM1154.26 182.258L1154.04 186.7L1133.03 184.405L1133.25 179.963L1154.26 182.258ZM1169.05 202.797C1169.07 202.364 1169.02 201.971 1168.91 201.618C1168.8 201.253 1168.59 200.905 1168.26 200.576C1167.94 200.246 1167.48 199.901 1166.87 199.541C1166.27 199.169 1165.48 198.771 1164.49 198.345C1163.37 197.846 1162.3 197.306 1161.29 196.724C1160.28 196.132 1159.4 195.476 1158.62 194.756C1157.85 194.037 1157.25 193.23 1156.83 192.336C1156.42 191.444 1156.24 190.436 1156.29 189.312C1156.35 188.224 1156.64 187.267 1157.16 186.441C1157.68 185.615 1158.39 184.94 1159.28 184.413C1160.17 183.876 1161.21 183.506 1162.39 183.306C1163.57 183.094 1164.86 183.064 1166.26 183.217C1168.12 183.421 1169.74 183.933 1171.12 184.754C1172.51 185.565 1173.57 186.611 1174.3 187.891C1175.04 189.16 1175.36 190.578 1175.29 192.147L1169.63 191.528C1169.66 190.837 1169.54 190.213 1169.28 189.654C1169.03 189.085 1168.62 188.617 1168.05 188.249C1167.49 187.882 1166.78 187.652 1165.92 187.558C1165.08 187.466 1164.37 187.518 1163.79 187.713C1163.22 187.898 1162.77 188.19 1162.46 188.592C1162.16 188.994 1162 189.453 1161.97 189.968C1161.95 190.378 1162.04 190.764 1162.23 191.126C1162.44 191.478 1162.74 191.822 1163.13 192.16C1163.53 192.486 1164.03 192.812 1164.63 193.135C1165.22 193.459 1165.9 193.78 1166.67 194.1C1168.01 194.682 1169.19 195.293 1170.21 195.935C1171.25 196.577 1172.11 197.272 1172.8 198.018C1173.49 198.764 1173.99 199.578 1174.31 200.46C1174.64 201.344 1174.78 202.318 1174.73 203.383C1174.67 204.518 1174.4 205.501 1173.92 206.33C1173.44 207.161 1172.77 207.841 1171.92 208.371C1171.07 208.891 1170.07 209.246 1168.91 209.437C1167.75 209.628 1166.47 209.647 1165.06 209.493C1163.78 209.353 1162.52 209.051 1161.29 208.587C1160.06 208.111 1158.96 207.473 1157.98 206.672C1157.01 205.872 1156.25 204.906 1155.7 203.775C1155.16 202.633 1154.93 201.325 1155 199.85L1160.7 200.472C1160.66 201.245 1160.74 201.912 1160.93 202.475C1161.13 203.026 1161.42 203.488 1161.81 203.86C1162.21 204.233 1162.71 204.523 1163.3 204.728C1163.88 204.934 1164.54 205.076 1165.28 205.157C1166.13 205.249 1166.82 205.208 1167.36 205.031C1167.9 204.844 1168.32 204.553 1168.59 204.16C1168.87 203.767 1169.02 203.312 1169.05 202.797ZM1184.71 185.587L1183.44 211.149L1177.75 210.526L1179.02 184.964L1184.71 185.587ZM1199.92 187.248L1189.32 198.941L1183.21 204.627L1182.44 199.195L1186.54 194.1L1192.93 186.484L1199.92 187.248ZM1192.04 212.088L1185.6 199.646L1190.1 196.731L1198.79 212.825L1192.04 212.088ZM1205.91 187.903L1210.32 199.824L1215.9 188.995L1222.06 189.667L1212.98 205.092L1212.52 214.326L1206.74 213.694L1207.2 204.46L1199.72 187.227L1205.91 187.903ZM1230.23 190.561L1228.96 216.123L1223.29 215.503L1224.55 189.94L1230.23 190.561ZM1265.6 194.426L1264.1 224.729L1260.99 224.389L1262.49 194.086L1265.6 194.426ZM1317.99 212.437L1317.94 213.578C1317.84 215.521 1317.49 217.236 1316.87 218.722C1316.27 220.21 1315.46 221.445 1314.42 222.426C1313.4 223.409 1312.21 224.12 1310.84 224.559C1309.48 224.987 1307.99 225.113 1306.37 224.936C1304.76 224.759 1303.29 224.31 1301.98 223.59C1300.67 222.859 1299.54 221.895 1298.61 220.698C1297.68 219.503 1296.99 218.103 1296.53 216.5C1296.07 214.896 1295.89 213.123 1295.99 211.18L1296.05 210.039C1296.14 208.096 1296.5 206.381 1297.11 204.895C1297.72 203.397 1298.54 202.156 1299.56 201.173C1300.59 200.192 1301.79 199.487 1303.16 199.06C1304.53 198.621 1306.02 198.49 1307.64 198.667C1309.26 198.844 1310.73 199.299 1312.04 200.03C1313.35 200.75 1314.46 201.707 1315.37 202.901C1316.3 204.097 1316.99 205.502 1317.45 207.117C1317.91 208.721 1318.09 210.494 1317.99 212.437ZM1312.19 212.95L1312.25 211.774C1312.31 210.475 1312.25 209.315 1312.07 208.294C1311.88 207.262 1311.59 206.383 1311.18 205.656C1310.77 204.928 1310.25 204.359 1309.61 203.949C1308.98 203.526 1308.25 203.27 1307.42 203.179C1306.56 203.085 1305.8 203.179 1305.14 203.46C1304.48 203.729 1303.91 204.179 1303.44 204.81C1302.97 205.441 1302.6 206.248 1302.32 207.229C1302.05 208.2 1301.88 209.335 1301.81 210.634L1301.76 211.81C1301.69 213.097 1301.75 214.257 1301.92 215.287C1302.1 216.308 1302.4 217.187 1302.8 217.926C1303.21 218.665 1303.73 219.245 1304.35 219.666C1304.99 220.089 1305.74 220.347 1306.6 220.441C1307.42 220.532 1308.17 220.436 1308.83 220.155C1309.5 219.875 1310.07 219.414 1310.55 218.772C1311.02 218.13 1311.4 217.324 1311.67 216.353C1311.95 215.372 1312.12 214.238 1312.19 212.95ZM1328.88 227.042L1323.29 226.431L1323.54 222.011L1329.1 222.618C1330.37 222.757 1331.46 222.581 1332.36 222.092C1333.26 221.59 1333.97 220.785 1334.48 219.676C1334.99 218.555 1335.29 217.158 1335.38 215.484L1335.43 214.308C1335.5 213.044 1335.42 211.918 1335.22 210.93C1335.01 209.931 1334.67 209.076 1334.2 208.366C1333.73 207.655 1333.13 207.096 1332.4 206.686C1331.69 206.279 1330.85 206.022 1329.89 205.918L1324.23 205.299L1324.45 200.857L1330.11 201.476C1331.84 201.665 1333.4 202.129 1334.79 202.87C1336.19 203.611 1337.39 204.583 1338.37 205.785C1339.36 206.988 1340.11 208.364 1340.61 209.913C1341.1 211.462 1341.31 213.149 1341.22 214.975L1341.16 216.116C1341.07 217.93 1340.7 219.555 1340.06 220.991C1339.41 222.415 1338.54 223.614 1337.44 224.588C1336.35 225.552 1335.08 226.248 1333.63 226.678C1332.18 227.108 1330.59 227.229 1328.88 227.042ZM1327.79 201.222L1326.52 226.784L1320.83 226.162L1322.09 200.6L1327.79 201.222ZM1361.55 226.164L1361.33 230.588L1347.79 229.108L1348.01 224.684L1361.55 226.164ZM1351 203.758L1349.73 229.32L1344.03 228.698L1345.3 203.136L1351 203.758ZM1360.34 215.123L1360.13 219.407L1348.33 218.118L1348.55 213.834L1360.34 215.123ZM1362.62 205.028L1362.4 209.47L1348.84 207.988L1349.06 203.546L1362.62 205.028ZM1377.65 225.594C1377.68 225.161 1377.63 224.768 1377.52 224.414C1377.41 224.049 1377.19 223.702 1376.87 223.372C1376.54 223.043 1376.08 222.698 1375.48 222.338C1374.88 221.966 1374.08 221.567 1373.1 221.142C1371.97 220.643 1370.9 220.102 1369.89 219.521C1368.89 218.929 1368 218.273 1367.23 217.553C1366.46 216.833 1365.86 216.026 1365.44 215.133C1365.02 214.24 1364.84 213.232 1364.9 212.109C1364.95 211.02 1365.24 210.063 1365.76 209.238C1366.28 208.412 1366.99 207.736 1367.88 207.21C1368.78 206.672 1369.82 206.303 1371 206.103C1372.18 205.89 1373.47 205.861 1374.87 206.014C1376.73 206.217 1378.35 206.73 1379.73 207.551C1381.12 208.362 1382.18 209.407 1382.91 210.688C1383.64 211.956 1383.97 213.375 1383.89 214.943L1378.23 214.325C1378.27 213.634 1378.15 213.009 1377.88 212.451C1377.63 211.882 1377.22 211.414 1376.65 211.046C1376.1 210.679 1375.39 210.448 1374.53 210.354C1373.69 210.263 1372.98 210.314 1372.39 210.509C1371.82 210.694 1371.38 210.987 1371.07 211.388C1370.77 211.791 1370.6 212.25 1370.58 212.765C1370.56 213.174 1370.64 213.56 1370.84 213.923C1371.04 214.274 1371.34 214.619 1371.73 214.956C1372.14 215.283 1372.64 215.608 1373.23 215.932C1373.82 216.255 1374.51 216.577 1375.27 216.896C1376.62 217.478 1377.8 218.09 1378.82 218.731C1379.85 219.374 1380.72 220.068 1381.4 220.814C1382.09 221.56 1382.6 222.374 1382.92 223.257C1383.25 224.14 1383.39 225.114 1383.33 226.179C1383.28 227.315 1383.01 228.297 1382.52 229.127C1382.05 229.957 1381.38 230.638 1380.52 231.168C1379.68 231.687 1378.68 232.042 1377.52 232.234C1376.36 232.425 1375.08 232.444 1373.67 232.29C1372.39 232.15 1371.13 231.848 1369.9 231.384C1368.67 230.908 1367.57 230.269 1366.59 229.468C1365.62 228.668 1364.86 227.702 1364.31 226.571C1363.77 225.429 1363.53 224.121 1363.6 222.646L1369.3 223.269C1369.26 224.041 1369.34 224.709 1369.54 225.272C1369.73 225.822 1370.02 226.284 1370.42 226.656C1370.82 227.03 1371.31 227.319 1371.9 227.525C1372.49 227.73 1373.15 227.873 1373.88 227.953C1374.73 228.046 1375.43 228.004 1375.96 227.827C1376.51 227.64 1376.92 227.35 1377.2 226.956C1377.48 226.563 1377.63 226.109 1377.65 225.594ZM1397.95 213.779L1390.36 233.76L1384.27 233.096L1394.96 208.563L1398.81 208.983L1397.95 213.779ZM1402.38 235.074L1396.82 213.655L1396.38 208.717L1400.27 209.143L1408.46 235.739L1402.38 235.074ZM1402.57 225.528L1402.35 229.952L1389.09 228.503L1389.31 224.078L1402.57 225.528ZM1442.61 213.77L1441.11 244.073L1438 243.733L1439.5 213.43L1442.61 213.77Z" fill="black"/>
<rect width="1489.04" height="98.3151" transform="matrix(0.990859 -0.134901 0.0617103 0.998094 0 219.872)" fill="#F7DE59"/>
<path d="M74.3774 259.41L74.6465 263.832L61.841 265.548L61.572 261.126L74.3774 259.41ZM62.2203 239.742L63.7749 265.289L58.0952 266.05L56.5406 240.503L62.2203 239.742ZM82.9431 257.007L87.3782 236.371L93.7025 235.523L86.5634 262.235L82.4343 262.788L82.9431 257.007ZM76.5937 237.816L83.4309 256.941L84.6644 262.489L80.483 263.05L70.2868 238.661L76.5937 237.816ZM101.856 234.431L103.411 259.977L97.7486 260.736L96.1939 235.19L101.856 234.431ZM117.021 252.44L121.456 231.804L127.781 230.957L120.642 257.668L116.513 258.222L117.021 252.44ZM110.672 233.249L117.509 252.375L118.743 257.923L114.561 258.483L104.365 234.095L110.672 233.249ZM160.57 226.563L162.413 256.847L159.311 257.262L157.468 226.978L160.57 226.563ZM210.098 241.223L210.367 245.645L197.561 247.361L197.292 242.939L210.098 241.223ZM197.941 221.555L199.495 247.102L193.816 247.863L192.261 222.316L197.941 221.555ZM224.998 217.929L230.677 217.168L231.698 233.942C231.819 235.93 231.503 237.659 230.749 239.128C230.007 240.595 228.919 241.773 227.486 242.661C226.053 243.549 224.367 244.122 222.427 244.382C220.476 244.644 218.736 244.529 217.207 244.038C215.69 243.546 214.466 242.678 213.536 241.435C212.617 240.19 212.097 238.573 211.976 236.585L210.955 219.811L216.652 219.048L217.673 235.821C217.74 236.921 217.957 237.8 218.325 238.458C218.704 239.103 219.217 239.547 219.864 239.791C220.511 240.022 221.275 240.079 222.158 239.961C223.041 239.843 223.78 239.584 224.377 239.186C224.984 238.774 225.423 238.202 225.695 237.47C225.978 236.725 226.085 235.802 226.018 234.703L224.998 217.929ZM246.549 215.041L248.104 240.588L242.442 241.347L240.887 215.8L246.549 215.041ZM254.267 214.007L254.537 218.446L233.596 221.252L233.326 216.813L254.267 214.007ZM271.092 230.715C271.066 230.282 270.978 229.905 270.83 229.582C270.681 229.249 270.429 228.958 270.074 228.711C269.72 228.464 269.226 228.235 268.592 228.025C267.958 227.803 267.132 227.602 266.114 227.42C264.953 227.198 263.841 226.922 262.779 226.593C261.728 226.25 260.782 225.817 259.942 225.293C259.103 224.768 258.425 224.116 257.909 223.336C257.405 222.555 257.118 221.603 257.05 220.48C256.984 219.392 257.162 218.377 257.585 217.436C258.008 216.495 258.63 215.657 259.452 214.922C260.273 214.175 261.254 213.56 262.396 213.077C263.537 212.582 264.804 212.241 266.198 212.055C268.056 211.805 269.708 211.92 271.154 212.399C272.611 212.864 273.771 213.64 274.633 214.727C275.495 215.803 275.973 217.124 276.069 218.692L270.424 219.448C270.382 218.758 270.2 218.169 269.877 217.682C269.566 217.181 269.111 216.818 268.511 216.591C267.924 216.363 267.2 216.307 266.341 216.422C265.504 216.534 264.809 216.757 264.256 217.091C263.713 217.411 263.31 217.807 263.046 218.279C262.794 218.749 262.683 219.241 262.714 219.756C262.739 220.165 262.867 220.526 263.096 220.837C263.337 221.135 263.669 221.403 264.094 221.641C264.529 221.865 265.056 222.066 265.676 222.242C266.296 222.419 267.002 222.572 267.794 222.701C269.179 222.952 270.411 223.271 271.488 223.657C272.577 224.042 273.502 224.519 274.263 225.089C275.023 225.66 275.609 226.342 276.021 227.136C276.444 227.928 276.687 228.856 276.752 229.921C276.821 231.056 276.662 232.091 276.274 233.027C275.897 233.962 275.316 234.795 274.529 235.525C273.753 236.243 272.805 236.835 271.686 237.304C270.567 237.772 269.305 238.1 267.9 238.289C266.622 238.46 265.352 238.465 264.089 238.304C262.826 238.131 261.668 237.768 260.615 237.213C259.574 236.657 258.719 235.887 258.051 234.903C257.393 233.907 257.019 232.671 256.929 231.198L262.609 230.436C262.656 231.208 262.806 231.849 263.06 232.357C263.312 232.854 263.652 233.239 264.078 233.512C264.517 233.783 265.036 233.95 265.637 234.011C266.238 234.072 266.904 234.053 267.636 233.955C268.484 233.841 269.162 233.633 269.67 233.329C270.19 233.011 270.564 232.625 270.794 232.17C271.024 231.714 271.123 231.229 271.092 230.715ZM284.635 209.938L286.189 235.484L280.509 236.245L278.955 210.699L284.635 209.938ZM299.792 207.906L290.639 222.011L285.239 229.102L283.887 223.923L287.367 217.903L292.823 208.84L299.792 207.906ZM294.761 234.335L287.047 223.606L291.162 219.641L301.486 233.434L294.761 234.335ZM332.389 203.538L334.232 233.822L331.131 234.238L329.288 203.954L332.389 203.538ZM364.081 199.292L373.82 197.986C375.759 197.727 377.456 197.794 378.908 198.189C380.372 198.582 381.523 199.301 382.359 200.345C383.195 201.388 383.665 202.752 383.767 204.436C383.853 205.84 383.699 207.064 383.306 208.107C382.912 209.15 382.323 210.049 381.538 210.803C380.764 211.555 379.843 212.203 378.775 212.747L376.991 214.012L368.697 215.123L368.393 210.689L374.56 209.863C375.408 209.749 376.101 209.503 376.64 209.124C377.179 208.745 377.572 208.262 377.817 207.675C378.073 207.075 378.178 206.4 378.133 205.651C378.086 204.879 377.9 204.232 377.576 203.71C377.251 203.187 376.795 202.818 376.208 202.602C375.632 202.372 374.926 202.313 374.09 202.426L370.03 202.969L371.315 224.077L365.635 224.838L364.081 199.292ZM379.678 222.956L373.29 212.368L379.282 211.547L385.742 221.878L385.758 222.141L379.678 222.956ZM393.193 195.39L394.748 220.937L389.086 221.696L387.531 196.149L393.193 195.39ZM408.359 213.399L412.794 192.764L419.118 191.916L411.979 218.628L407.85 219.181L408.359 213.399ZM402.009 194.209L408.846 213.334L410.08 218.882L405.898 219.443L395.702 195.054L402.009 194.209ZM442.15 188.83L443.705 214.376L438.043 215.135L427.456 199.909L428.46 216.419L422.781 217.18L421.226 191.634L426.906 190.873L437.51 206.097L436.506 189.586L442.15 188.83ZM464.883 207.081L465.152 211.502L451.65 213.312L451.381 208.89L464.883 207.081ZM452.029 187.506L453.584 213.053L447.904 213.814L446.349 188.267L452.029 187.506ZM462.481 196.471L462.741 200.752L450.981 202.328L450.721 198.047L462.481 196.471ZM463.615 185.954L463.885 190.393L450.365 192.204L450.095 187.765L463.615 185.954ZM497.066 181.471L498.909 211.755L495.807 212.17L493.965 181.887L497.066 181.471ZM544.373 192.254L550.018 191.498C550.032 193.265 549.65 194.878 548.872 196.339C548.106 197.786 546.99 198.991 545.527 199.953C544.062 200.904 542.291 201.519 540.212 201.798C538.551 202.02 537.046 201.933 535.699 201.536C534.352 201.138 533.187 200.469 532.205 199.528C531.233 198.573 530.458 197.374 529.878 195.93C529.309 194.473 528.967 192.792 528.851 190.885L528.756 189.323C528.64 187.417 528.785 185.67 529.192 184.082C529.599 182.495 530.234 181.101 531.098 179.9C531.962 178.699 533.026 177.725 534.292 176.978C535.558 176.23 536.993 175.749 538.596 175.534C540.756 175.245 542.603 175.392 544.138 175.977C545.672 176.561 546.888 177.483 547.784 178.743C548.692 180.001 549.281 181.496 549.55 183.229L543.888 183.988C543.781 183 543.544 182.188 543.177 181.554C542.81 180.907 542.279 180.453 541.584 180.193C540.889 179.932 539.984 179.877 538.869 180.026C538.056 180.135 537.351 180.383 536.754 180.769C536.168 181.154 535.692 181.696 535.325 182.394C534.969 183.09 534.723 183.948 534.586 184.969C534.448 185.978 534.42 187.161 534.503 188.518L534.6 190.115C534.682 191.46 534.84 192.612 535.074 193.571C535.308 194.53 535.636 195.306 536.059 195.898C536.493 196.488 537.027 196.9 537.662 197.134C538.297 197.367 539.055 197.424 539.938 197.306C540.949 197.171 541.781 196.9 542.436 196.494C543.089 196.076 543.576 195.516 543.897 194.812C544.217 194.109 544.376 193.256 544.373 192.254ZM569.785 182.092L570.054 186.513L556.918 188.274L556.649 183.852L569.785 182.092ZM557.818 173.33L559.372 198.876L553.693 199.638L552.138 174.091L557.818 173.33ZM573.08 171.285L574.634 196.831L568.972 197.59L567.417 172.044L573.08 171.285ZM595.83 189.533L596.099 193.955L582.596 195.764L582.327 191.343L595.83 189.533ZM582.976 169.959L584.53 195.505L578.851 196.266L577.296 170.72L582.976 169.959ZM593.427 178.924L593.688 183.205L581.928 184.781L581.667 180.5L593.427 178.924ZM594.561 168.406L594.832 172.845L581.312 174.657L581.042 170.218L594.561 168.406ZM597.332 168.035L607.071 166.73C609.01 166.47 610.707 166.537 612.159 166.932C613.623 167.326 614.774 168.044 615.61 169.088C616.446 170.131 616.916 171.495 617.018 173.18C617.104 174.583 616.95 175.807 616.557 176.85C616.163 177.893 615.574 178.792 614.789 179.546C614.015 180.298 613.094 180.946 612.026 181.49L610.242 182.755L601.948 183.867L601.643 179.432L607.811 178.606C608.659 178.492 609.352 178.246 609.891 177.867C610.43 177.488 610.823 177.005 611.068 176.418C611.324 175.818 611.429 175.143 611.384 174.395C611.337 173.623 611.151 172.975 610.827 172.453C610.502 171.93 610.046 171.561 609.459 171.345C608.883 171.115 608.177 171.057 607.341 171.169L603.281 171.713L604.566 192.82L598.886 193.581L597.332 168.035ZM612.929 191.7L606.541 181.111L612.533 180.29L618.993 190.622L619.009 190.885L612.929 191.7ZM641.323 162.14L642.878 187.686L637.216 188.445L626.628 173.219L627.633 189.729L621.953 190.49L620.399 164.944L626.079 164.183L636.683 179.407L635.678 162.896L641.323 162.14ZM651.568 160.767L653.122 186.313L647.46 187.072L645.905 161.526L651.568 160.767ZM666.733 178.776L671.168 158.14L677.492 157.293L670.353 184.004L666.224 184.558L666.733 178.776ZM660.383 159.586L667.22 178.711L668.454 184.259L664.272 184.819L654.076 160.431L660.383 159.586ZM691.413 155.428L692.967 180.974L687.305 181.733L685.75 156.186L691.413 155.428ZM699.131 154.393L699.401 158.832L678.459 161.639L678.189 157.2L699.131 154.393ZM715.955 171.101C715.929 170.668 715.842 170.291 715.693 169.969C715.544 169.635 715.292 169.344 714.938 169.097C714.583 168.85 714.089 168.621 713.456 168.411C712.822 168.19 711.995 167.988 710.977 167.806C709.816 167.584 708.705 167.309 707.642 166.979C706.591 166.637 705.646 166.203 704.806 165.679C703.966 165.155 703.288 164.503 702.772 163.723C702.268 162.941 701.982 161.989 701.913 160.866C701.847 159.778 702.025 158.764 702.448 157.823C702.871 156.881 703.493 156.043 704.315 155.308C705.136 154.561 706.118 153.946 707.259 153.463C708.4 152.968 709.667 152.628 711.061 152.441C712.919 152.192 714.572 152.306 716.018 152.785C717.474 153.25 718.634 154.026 719.497 155.114C720.358 156.189 720.837 157.511 720.932 159.078L715.287 159.834C715.245 159.144 715.063 158.555 714.741 158.068C714.429 157.567 713.974 157.204 713.375 156.978C712.787 156.75 712.063 156.693 711.204 156.808C710.368 156.921 709.673 157.143 709.119 157.477C708.577 157.797 708.173 158.193 707.909 158.665C707.657 159.135 707.546 159.628 707.578 160.142C707.603 160.552 707.73 160.912 707.96 161.223C708.2 161.521 708.533 161.789 708.957 162.027C709.392 162.252 709.92 162.452 710.539 162.629C711.159 162.805 711.865 162.958 712.657 163.088C714.043 163.338 715.274 163.657 716.351 164.043C717.44 164.428 718.365 164.905 719.126 165.476C719.887 166.046 720.473 166.728 720.884 167.522C721.307 168.314 721.551 169.243 721.616 170.307C721.685 171.442 721.525 172.477 721.137 173.414C720.761 174.349 720.179 175.181 719.392 175.912C718.616 176.629 717.669 177.222 716.55 177.69C715.431 178.158 714.168 178.487 712.763 178.675C711.485 178.846 710.215 178.851 708.952 178.69C707.689 178.518 706.531 178.154 705.478 177.599C704.438 177.043 703.583 176.273 702.914 175.29C702.256 174.293 701.882 173.058 701.793 171.584L707.472 170.823C707.519 171.595 707.67 172.235 707.923 172.743C708.176 173.24 708.515 173.625 708.942 173.898C709.38 174.17 709.899 174.336 710.5 174.397C711.101 174.458 711.767 174.439 712.499 174.341C713.347 174.228 714.025 174.019 714.534 173.715C715.053 173.398 715.428 173.011 715.658 172.556C715.887 172.101 715.987 171.616 715.955 171.101ZM729.864 150.275L731.418 175.821L725.756 176.58L724.201 151.034L729.864 150.275ZM765.127 145.55L766.97 175.833L763.868 176.249L762.025 145.965L765.127 145.55ZM816.78 159.925L817.049 164.347L798.878 166.782L798.609 162.36L816.78 159.925ZM815.489 141.879L801.544 166.424L797.502 166.966L797.311 163.843L811.401 139.349L815.303 138.826L815.489 141.879ZM813.422 139.078L813.692 143.517L796.182 145.863L795.912 141.424L813.422 139.078ZM836.174 146.395L836.443 150.816L823.306 152.576L823.037 148.155L836.174 146.395ZM824.206 137.633L825.761 163.179L820.081 163.94L818.526 138.394L824.206 137.633ZM839.468 135.587L841.023 161.134L835.36 161.893L833.806 136.346L839.468 135.587ZM847.256 134.544L852.913 145.248L857.221 133.208L863.354 132.387L856.106 149.808L856.668 159.037L850.901 159.81L850.34 150.581L841.088 135.37L847.256 134.544ZM877.588 130.479L879.143 156.026L873.481 156.784L871.926 131.238L877.588 130.479ZM885.306 129.445L885.576 133.884L864.635 136.69L864.365 132.251L885.306 129.445ZM909.517 138.512L909.587 139.652C909.705 141.594 909.544 143.373 909.104 144.988C908.675 146.602 908.006 148.019 907.096 149.237C906.199 150.454 905.1 151.445 903.799 152.209C902.51 152.959 901.058 153.443 899.444 153.659C897.829 153.875 896.337 153.786 894.966 153.392C893.595 152.986 892.383 152.306 891.329 151.35C890.287 150.393 889.452 149.178 888.824 147.706C888.196 146.234 887.822 144.526 887.704 142.585L887.635 141.444C887.517 139.503 887.678 137.724 888.118 136.108C888.558 134.481 889.226 133.059 890.124 131.842C891.034 130.623 892.139 129.638 893.44 128.886C894.74 128.122 896.197 127.632 897.812 127.415C899.426 127.199 900.919 127.294 902.29 127.7C903.661 128.094 904.861 128.77 905.892 129.729C906.933 130.686 907.769 131.907 908.398 133.391C909.026 134.863 909.399 136.57 909.517 138.512ZM903.855 140.421L903.783 139.245C903.704 137.947 903.518 136.816 903.226 135.853C902.932 134.878 902.544 134.081 902.061 133.462C901.579 132.842 901.002 132.407 900.331 132.155C899.659 131.891 898.911 131.814 898.086 131.925C897.227 132.04 896.488 132.316 895.871 132.752C895.252 133.177 894.743 133.758 894.343 134.496C893.955 135.232 893.675 136.118 893.504 137.155C893.344 138.179 893.303 139.34 893.382 140.639L893.454 141.814C893.532 143.101 893.712 144.233 893.994 145.209C894.287 146.172 894.675 146.969 895.158 147.6C895.642 148.231 896.213 148.679 896.874 148.945C897.545 149.208 898.311 149.283 899.171 149.167C899.995 149.057 900.716 148.783 901.334 148.347C901.963 147.909 902.477 147.315 902.876 146.566C903.276 145.817 903.556 144.93 903.716 143.906C903.887 142.869 903.933 141.707 903.855 140.421ZM914.977 125.469L919.681 124.839L926.89 142.287L931.859 123.207L936.563 122.576L929.232 149.314L925.417 149.825L914.977 125.469ZM912.259 125.833L917.05 125.191L919.091 144.004L919.493 150.619L913.813 151.38L912.259 125.833ZM934.49 122.854L939.298 122.21L940.853 147.756L935.156 148.52L934.753 141.905L934.49 122.854ZM947.086 121.166L952.743 131.87L957.052 119.831L963.184 119.009L955.937 136.431L956.498 145.66L950.731 146.433L950.17 137.203L940.919 121.993L947.086 121.166ZM965.293 118.726L975.032 117.421C976.971 117.161 978.667 117.229 980.12 117.624C981.584 118.017 982.735 118.736 983.571 119.779C984.407 120.823 984.877 122.187 984.979 123.871C985.065 125.275 984.911 126.498 984.518 127.542C984.124 128.585 983.535 129.484 982.75 130.237C981.976 130.99 981.055 131.638 979.987 132.182L978.202 133.447L969.909 134.558L969.604 130.124L975.772 129.297C976.62 129.184 977.313 128.938 977.852 128.559C978.391 128.18 978.783 127.697 979.029 127.11C979.285 126.509 979.39 125.835 979.345 125.086C979.298 124.314 979.112 123.667 978.787 123.145C978.463 122.622 978.007 122.253 977.42 122.036C976.844 121.807 976.138 121.748 975.302 121.86L971.242 122.404L972.527 143.512L966.847 144.273L965.293 118.726ZM980.89 142.391L974.502 131.803L980.494 130.982L986.954 141.313L986.97 141.576L980.89 142.391ZM1019.04 111.524L1020.88 141.808L1017.78 142.223L1015.94 111.94L1019.04 111.524ZM1056.41 106.516L1057.97 132.063L1052.29 132.824L1050.73 107.277L1056.41 106.516ZM1071.57 104.485L1062.42 118.589L1057.02 125.68L1055.66 120.502L1059.14 114.481L1064.6 105.419L1071.57 104.485ZM1066.54 130.914L1058.82 120.185L1062.94 116.219L1073.26 130.013L1066.54 130.914ZM1077.54 103.684L1083.2 114.388L1087.51 102.349L1093.64 101.527L1086.4 118.949L1086.96 128.178L1081.19 128.95L1080.63 119.721L1071.38 104.511L1077.54 103.684ZM1101.8 100.434L1103.35 125.981L1097.69 126.74L1096.13 101.193L1101.8 100.434ZM1116.96 118.443L1121.4 97.8077L1127.72 96.9602L1120.58 123.672L1116.45 124.225L1116.96 118.443ZM1110.61 99.2529L1117.45 118.378L1118.68 123.926L1114.5 124.487L1104.31 100.098L1110.61 99.2529ZM1160.51 92.5664L1162.35 122.85L1159.25 123.266L1157.41 92.9819L1160.51 92.5664ZM1203.22 103.648L1196.84 104.502L1196.57 100.063L1202.95 99.2088C1203.89 99.0827 1204.63 98.8237 1205.18 98.4316C1205.74 98.0379 1206.14 97.5483 1206.38 96.9628C1206.62 96.3639 1206.72 95.7136 1206.68 95.0118C1206.63 94.2866 1206.45 93.6327 1206.14 93.0501C1205.83 92.4542 1205.38 92.0022 1204.77 91.694C1204.18 91.3843 1203.41 91.2925 1202.47 91.4185L1198.15 91.9975L1199.44 113.105L1193.76 113.866L1192.2 88.3196L1202.2 86.9795C1204.22 86.7087 1205.98 86.8452 1207.46 87.3891C1208.96 87.9315 1210.13 88.7947 1210.97 89.9786C1211.83 91.1493 1212.31 92.5593 1212.41 94.2086C1212.51 95.8579 1212.21 97.3429 1211.5 98.6637C1210.81 99.9829 1209.76 101.079 1208.35 101.952C1206.95 102.812 1205.24 103.377 1203.22 103.648ZM1237.23 94.5966L1237.3 95.7371C1237.42 97.6788 1237.26 99.4575 1236.82 101.073C1236.39 102.687 1235.72 104.103 1234.81 105.322C1233.91 106.539 1232.81 107.529 1231.51 108.293C1230.23 109.044 1228.77 109.527 1227.16 109.744C1225.54 109.96 1224.05 109.871 1222.68 109.477C1221.31 109.071 1220.1 108.39 1219.04 107.435C1218 106.478 1217.17 105.263 1216.54 103.791C1215.91 102.318 1215.54 100.611 1215.42 98.6694L1215.35 97.529C1215.23 95.5873 1215.39 93.8086 1215.83 92.193C1216.27 90.5657 1216.94 89.1435 1217.84 87.9265C1218.75 86.7079 1219.85 85.7225 1221.15 84.9704C1222.46 84.2066 1223.91 83.7165 1225.53 83.5001C1227.14 83.2838 1228.63 83.3785 1230.01 83.7844C1231.38 84.1785 1232.58 84.855 1233.61 85.8136C1234.65 86.7707 1235.48 87.9913 1236.11 89.4754C1236.74 90.9478 1237.11 92.6549 1237.23 94.5966ZM1231.57 96.5052L1231.5 95.3296C1231.42 94.0313 1231.23 92.9005 1230.94 91.9374C1230.65 90.9626 1230.26 90.1655 1229.78 89.5462C1229.29 88.9269 1228.72 88.4913 1228.05 88.2392C1227.37 87.9755 1226.63 87.8988 1225.8 88.0093C1224.94 88.1245 1224.2 88.4004 1223.59 88.8369C1222.97 89.2617 1222.46 89.8429 1222.06 90.5805C1221.67 91.3165 1221.39 92.2031 1221.22 93.2401C1221.06 94.264 1221.02 95.4251 1221.1 96.7234L1221.17 97.899C1221.25 99.1857 1221.43 100.317 1221.71 101.294C1222 102.257 1222.39 103.054 1222.87 103.685C1223.36 104.316 1223.93 104.764 1224.59 105.029C1225.26 105.293 1226.03 105.367 1226.89 105.252C1227.71 105.142 1228.43 104.868 1229.05 104.432C1229.68 103.993 1230.19 103.4 1230.59 102.65C1230.99 101.901 1231.27 101.015 1231.43 99.9908C1231.6 98.9538 1231.65 97.7919 1231.57 96.5052ZM1257.81 100.825L1258.08 105.246L1245.27 106.962L1245.01 102.541L1257.81 100.825ZM1245.65 81.1568L1247.21 106.703L1241.53 107.464L1239.97 81.9179L1245.65 81.1568ZM1267.33 78.2525L1268.88 103.799L1263.22 104.558L1261.66 79.0112L1267.33 78.2525ZM1275.05 77.2182L1275.32 81.6573L1254.37 84.4635L1254.1 80.0245L1275.05 77.2182ZM1286.7 80.5561L1281.41 102.12L1275.35 102.933L1283.18 76.1279L1287.01 75.6143L1286.7 80.5561ZM1293.4 100.514L1285.57 80.7079L1284.59 75.9388L1288.48 75.4182L1299.46 99.7016L1293.4 100.514ZM1292.54 91.0417L1292.81 95.4632L1279.58 97.2352L1279.31 92.8137L1292.54 91.0417ZM1309.2 92.6826L1313.64 72.0469L1319.96 71.1994L1312.82 97.9109L1308.69 98.4642L1309.2 92.6826ZM1302.85 73.4921L1309.69 92.6172L1310.92 98.1654L1306.74 98.7257L1296.54 74.3372L1302.85 73.4921ZM1331.58 74.542L1326.29 96.1062L1320.23 96.9187L1328.06 70.1138L1331.89 69.6001L1331.58 74.542ZM1338.28 94.4999L1330.45 74.6938L1329.47 69.9247L1333.36 69.404L1344.34 93.6875L1338.28 94.4999ZM1337.42 85.0275L1337.69 89.449L1324.46 91.2211L1324.19 86.7996L1337.42 85.0275ZM1384.46 62.5564L1386.3 92.8402L1383.2 93.2558L1381.36 62.972L1384.46 62.5564Z" fill="black"/>
</g>
<defs>
<clipPath id="clip0_7_11">
<rect width="1495" height="343" fill="white"/>
</clipPath>
</defs>
</svg>
