<svg width="220" height="96" viewBox="0 0 220 96" fill="none" xmlns="http://www.w3.org/2000/svg">
<rect width="220" height="96" fill="none"/>
<rect x="45.6426" y="9" width="128.715" height="80" fill="black" stroke="#F7DE59" stroke-width="6"/>
<path d="M48.6426 89C71.04 89 89.2852 71.1399 89.2852 49C89.2852 26.8601 71.04 9 48.6426 9C26.2452 9 8 26.8601 8 49C8 71.1399 26.2452 89 48.6426 89Z" fill="black" stroke="#F7DE59" stroke-width="6"/>
<path d="M171.357 89C193.755 89 212 71.1399 212 49C212 26.8601 193.755 9 171.357 9C148.96 9 130.715 26.8601 130.715 49C130.715 71.1399 148.96 89 171.357 89Z" fill="black" stroke="#F7DE59" stroke-width="6"/>
<rect x="52.4069" y="12" width="118.951" height="74" fill="black"/>
<ellipse cx="54.6654" cy="49" rx="31.6198" ry="30.4059" fill="#F7DE59"/>
<path d="M67.9736 35.2351C67.8604 34.1512 66.8663 33.3667 65.7532 33.483L47.6142 35.3774C46.5011 35.4937 45.6906 36.4666 45.8038 37.5505C45.917 38.6344 46.9111 39.4188 48.0242 39.3025L64.1477 37.6186L65.7875 53.3192C65.9007 54.4031 66.8948 55.1875 68.0079 55.0713C69.121 54.955 69.9315 53.9821 69.8183 52.8982L67.9736 35.2351ZM44.9427 63.7934L67.5282 36.6845L64.3881 34.2066L41.8026 61.3156L44.9427 63.7934Z" fill="black"/>
<path d="M111.093 37.9887V59.3168H106.332V37.9887H111.093ZM132.538 37.9887V59.3168H127.777L119.721 45.5327V59.3168H114.945V37.9887H119.721L127.792 51.7729V37.9887H132.538ZM140.844 37.9887V59.3168H136.068V37.9887H140.844ZM149.237 46.9828V50.6743H139.511V46.9828H149.237ZM150.175 37.9887V41.6948H139.511V37.9887H150.175ZM170.287 48.184V49.1362C170.287 50.7573 170.063 52.2123 169.613 53.5014C169.174 54.7905 168.544 55.8891 167.724 56.7973C166.913 57.7055 165.946 58.4037 164.823 58.892C163.71 59.3705 162.475 59.6098 161.117 59.6098C159.76 59.6098 158.52 59.3705 157.397 58.892C156.274 58.4037 155.297 57.7055 154.467 56.7973C153.647 55.8891 153.012 54.7905 152.563 53.5014C152.113 52.2123 151.889 50.7573 151.889 49.1362V48.184C151.889 46.5629 152.113 45.1078 152.563 43.8188C153.012 42.52 153.642 41.4164 154.452 40.5082C155.273 39.6 156.244 38.9067 157.367 38.4282C158.49 37.9399 159.731 37.6957 161.088 37.6957C162.445 37.6957 163.686 37.9399 164.809 38.4282C165.932 38.9067 166.899 39.6 167.709 40.5082C168.529 41.4164 169.164 42.52 169.613 43.8188C170.063 45.1078 170.287 46.5629 170.287 48.184ZM165.468 49.1362V48.1547C165.468 47.0707 165.37 46.1137 165.175 45.2836C164.98 44.4438 164.696 43.7407 164.325 43.1743C163.954 42.6078 163.495 42.183 162.948 41.8998C162.401 41.6069 161.781 41.4604 161.088 41.4604C160.365 41.4604 159.735 41.6069 159.198 41.8998C158.661 42.183 158.207 42.6078 157.836 43.1743C157.475 43.7407 157.196 44.4438 157.001 45.2836C156.815 46.1137 156.723 47.0707 156.723 48.1547V49.1362C156.723 50.2104 156.815 51.1674 157.001 52.0073C157.196 52.8373 157.48 53.5405 157.851 54.1166C158.222 54.6928 158.676 55.1274 159.213 55.4203C159.76 55.7133 160.395 55.8598 161.117 55.8598C161.811 55.8598 162.426 55.7133 162.963 55.4203C163.51 55.1274 163.969 54.6928 164.34 54.1166C164.711 53.5405 164.989 52.8373 165.175 52.0073C165.37 51.1674 165.468 50.2104 165.468 49.1362Z" fill="#F7DE59"/>
</svg>
